<mxfile host="app.diagrams.net" agent="Mozilla/5.0 (Windows NT 10.0; Win64; x64) AppleWebKit/537.36 (KHTML, like Gecko) Chrome/137.0.0.0 Safari/537.36 OPR/121.0.0.0" version="28.2.0">
  <diagram name="Страница — 1" id="_nzHFbz_Q0mJXp8Npdi9">
    <mxGraphModel dx="1384" dy="755" grid="1" gridSize="10" guides="1" tooltips="1" connect="1" arrows="1" fold="1" page="1" pageScale="1" pageWidth="827" pageHeight="1169" math="0" shadow="0">
      <root>
        <mxCell id="0" />
        <mxCell id="1" parent="0" />
        <mxCell id="yeZWbUVhtNGW3o87p1w2-2" value="" style="rounded=0;whiteSpace=wrap;html=1;" parent="1" vertex="1">
          <mxGeometry x="158" y="405" width="510" height="360" as="geometry" />
        </mxCell>
        <mxCell id="yeZWbUVhtNGW3o87p1w2-3" style="rounded=0;orthogonalLoop=1;jettySize=auto;html=1;entryX=0;entryY=0.5;entryDx=0;entryDy=0;endArrow=none;endFill=0;" parent="1" source="yeZWbUVhtNGW3o87p1w2-5" target="yeZWbUVhtNGW3o87p1w2-6" edge="1">
          <mxGeometry relative="1" as="geometry" />
        </mxCell>
        <mxCell id="yeZWbUVhtNGW3o87p1w2-4" style="edgeStyle=orthogonalEdgeStyle;rounded=0;orthogonalLoop=1;jettySize=auto;html=1;entryX=0;entryY=0.5;entryDx=0;entryDy=0;endArrow=none;endFill=0;" parent="1" source="yeZWbUVhtNGW3o87p1w2-5" target="yeZWbUVhtNGW3o87p1w2-9" edge="1">
          <mxGeometry relative="1" as="geometry" />
        </mxCell>
        <mxCell id="yeZWbUVhtNGW3o87p1w2-5" value="Клиент" style="shape=umlActor;verticalLabelPosition=bottom;verticalAlign=top;html=1;outlineConnect=0;" parent="1" vertex="1">
          <mxGeometry x="98" y="565" width="30" height="60" as="geometry" />
        </mxCell>
        <mxCell id="yeZWbUVhtNGW3o87p1w2-6" value="Создание заявки" style="ellipse;whiteSpace=wrap;html=1;" parent="1" vertex="1">
          <mxGeometry x="188" y="613" width="110" height="50" as="geometry" />
        </mxCell>
        <mxCell id="yeZWbUVhtNGW3o87p1w2-7" value="Редактирование заявки" style="ellipse;whiteSpace=wrap;html=1;" parent="1" vertex="1">
          <mxGeometry x="188" y="705" width="110" height="50" as="geometry" />
        </mxCell>
        <mxCell id="yeZWbUVhtNGW3o87p1w2-8" value="extend" style="html=1;verticalAlign=bottom;endArrow=open;dashed=1;endSize=8;curved=0;rounded=0;entryX=0.5;entryY=0;entryDx=0;entryDy=0;exitX=0.5;exitY=1;exitDx=0;exitDy=0;" parent="1" source="yeZWbUVhtNGW3o87p1w2-6" target="yeZWbUVhtNGW3o87p1w2-7" edge="1">
          <mxGeometry x="0.5238" relative="1" as="geometry">
            <mxPoint x="308" y="635" as="sourcePoint" />
            <mxPoint x="228" y="635" as="targetPoint" />
            <Array as="points" />
            <mxPoint as="offset" />
          </mxGeometry>
        </mxCell>
        <mxCell id="yeZWbUVhtNGW3o87p1w2-9" value="Авторизация" style="ellipse;whiteSpace=wrap;html=1;" parent="1" vertex="1">
          <mxGeometry x="358" y="570" width="110" height="50" as="geometry" />
        </mxCell>
        <mxCell id="yeZWbUVhtNGW3o87p1w2-10" style="edgeStyle=orthogonalEdgeStyle;rounded=0;orthogonalLoop=1;jettySize=auto;html=1;entryX=1;entryY=0.5;entryDx=0;entryDy=0;endArrow=none;endFill=0;" parent="1" source="yeZWbUVhtNGW3o87p1w2-13" target="yeZWbUVhtNGW3o87p1w2-9" edge="1">
          <mxGeometry relative="1" as="geometry" />
        </mxCell>
        <mxCell id="yeZWbUVhtNGW3o87p1w2-11" style="rounded=0;orthogonalLoop=1;jettySize=auto;html=1;entryX=1;entryY=0.5;entryDx=0;entryDy=0;endArrow=none;endFill=0;" parent="1" source="yeZWbUVhtNGW3o87p1w2-13" target="yeZWbUVhtNGW3o87p1w2-14" edge="1">
          <mxGeometry relative="1" as="geometry" />
        </mxCell>
        <mxCell id="yeZWbUVhtNGW3o87p1w2-12" style="rounded=0;orthogonalLoop=1;jettySize=auto;html=1;entryX=1;entryY=0;entryDx=0;entryDy=0;fontFamily=Helvetica;fontSize=8;fontColor=default;endArrow=none;endFill=0;" parent="1" source="yeZWbUVhtNGW3o87p1w2-13" target="yeZWbUVhtNGW3o87p1w2-25" edge="1">
          <mxGeometry relative="1" as="geometry">
            <mxPoint x="560.7916065732238" y="735.4758182604894" as="targetPoint" />
          </mxGeometry>
        </mxCell>
        <mxCell id="yeZWbUVhtNGW3o87p1w2-13" value="Оператор" style="shape=umlActor;verticalLabelPosition=bottom;verticalAlign=top;html=1;" parent="1" vertex="1">
          <mxGeometry x="699" y="565" width="30" height="60" as="geometry" />
        </mxCell>
        <mxCell id="yeZWbUVhtNGW3o87p1w2-14" value="Регистрация заявки" style="ellipse;whiteSpace=wrap;html=1;" parent="1" vertex="1">
          <mxGeometry x="528" y="613" width="110" height="50" as="geometry" />
        </mxCell>
        <mxCell id="yeZWbUVhtNGW3o87p1w2-15" value="Обработка заявки" style="ellipse;whiteSpace=wrap;html=1;" parent="1" vertex="1">
          <mxGeometry x="408" y="675" width="110" height="50" as="geometry" />
        </mxCell>
        <mxCell id="yeZWbUVhtNGW3o87p1w2-16" value="Исполнение заявки" style="ellipse;whiteSpace=wrap;html=1;" parent="1" vertex="1">
          <mxGeometry x="538" y="410" width="110" height="50" as="geometry" />
        </mxCell>
        <mxCell id="yeZWbUVhtNGW3o87p1w2-17" value="include" style="html=1;verticalAlign=bottom;endArrow=open;dashed=1;endSize=8;curved=0;rounded=0;exitX=0.5;exitY=0;exitDx=0;exitDy=0;entryX=0;entryY=1;entryDx=0;entryDy=0;" parent="1" source="yeZWbUVhtNGW3o87p1w2-15" target="yeZWbUVhtNGW3o87p1w2-14" edge="1">
          <mxGeometry x="-0.1251" y="2" relative="1" as="geometry">
            <mxPoint x="582.6600000000001" y="705" as="sourcePoint" />
            <mxPoint x="478" y="655" as="targetPoint" />
            <Array as="points" />
            <mxPoint y="1" as="offset" />
          </mxGeometry>
        </mxCell>
        <mxCell id="yeZWbUVhtNGW3o87p1w2-18" value="Формирование отчёта" style="ellipse;whiteSpace=wrap;html=1;" parent="1" vertex="1">
          <mxGeometry x="548" y="541" width="110" height="50" as="geometry" />
        </mxCell>
        <mxCell id="yeZWbUVhtNGW3o87p1w2-19" value="Учёт заявки" style="text;align=center;fontStyle=1;verticalAlign=middle;spacingLeft=3;spacingRight=3;strokeColor=none;rotatable=0;points=[[0,0.5],[1,0.5]];portConstraint=eastwest;html=1;" parent="1" vertex="1">
          <mxGeometry x="168" y="415" width="80" height="26" as="geometry" />
        </mxCell>
        <mxCell id="yeZWbUVhtNGW3o87p1w2-20" style="rounded=0;orthogonalLoop=1;jettySize=auto;html=1;entryX=1;entryY=0.5;entryDx=0;entryDy=0;fontFamily=Helvetica;fontSize=8;fontColor=default;endArrow=none;endFill=0;" parent="1" source="yeZWbUVhtNGW3o87p1w2-24" target="yeZWbUVhtNGW3o87p1w2-16" edge="1">
          <mxGeometry relative="1" as="geometry" />
        </mxCell>
        <mxCell id="yeZWbUVhtNGW3o87p1w2-21" style="rounded=0;orthogonalLoop=1;jettySize=auto;html=1;entryX=1;entryY=0.5;entryDx=0;entryDy=0;fontFamily=Helvetica;fontSize=8;fontColor=default;endArrow=none;endFill=0;" parent="1" source="yeZWbUVhtNGW3o87p1w2-24" target="yeZWbUVhtNGW3o87p1w2-18" edge="1">
          <mxGeometry relative="1" as="geometry" />
        </mxCell>
        <mxCell id="yeZWbUVhtNGW3o87p1w2-22" style="rounded=0;orthogonalLoop=1;jettySize=auto;html=1;entryX=1;entryY=0.5;entryDx=0;entryDy=0;fontFamily=Helvetica;fontSize=8;fontColor=default;endArrow=none;endFill=0;" parent="1" source="yeZWbUVhtNGW3o87p1w2-24" target="yeZWbUVhtNGW3o87p1w2-26" edge="1">
          <mxGeometry relative="1" as="geometry" />
        </mxCell>
        <mxCell id="yeZWbUVhtNGW3o87p1w2-23" style="rounded=0;orthogonalLoop=1;jettySize=auto;html=1;entryX=1;entryY=0.5;entryDx=0;entryDy=0;fontFamily=Helvetica;fontSize=8;fontColor=default;endArrow=none;endFill=0;" parent="1" source="yeZWbUVhtNGW3o87p1w2-24" target="yeZWbUVhtNGW3o87p1w2-27" edge="1">
          <mxGeometry relative="1" as="geometry" />
        </mxCell>
        <mxCell id="yeZWbUVhtNGW3o87p1w2-24" value="Мастер" style="shape=umlActor;verticalLabelPosition=bottom;verticalAlign=top;html=1;" parent="1" vertex="1">
          <mxGeometry x="699" y="455" width="30" height="60" as="geometry" />
        </mxCell>
        <mxCell id="yeZWbUVhtNGW3o87p1w2-25" value="Назначение мастера" style="ellipse;whiteSpace=wrap;html=1;" parent="1" vertex="1">
          <mxGeometry x="528" y="685" width="110" height="50" as="geometry" />
        </mxCell>
        <mxCell id="yeZWbUVhtNGW3o87p1w2-26" value="Просмотр заявок" style="ellipse;whiteSpace=wrap;html=1;" parent="1" vertex="1">
          <mxGeometry x="418" y="441" width="110" height="50" as="geometry" />
        </mxCell>
        <mxCell id="yeZWbUVhtNGW3o87p1w2-27" value="Заказ запчастей" style="ellipse;whiteSpace=wrap;html=1;" parent="1" vertex="1">
          <mxGeometry x="528" y="485" width="110" height="50" as="geometry" />
        </mxCell>
      </root>
    </mxGraphModel>
  </diagram>
</mxfile>
